{
	"asset":{
		"generator":"Khronos glTF Blender I/O v4.0.44",
		"version":"2.0"
	},
	"scene":0,
	"scenes":[
		{
			"name":"Scene",
			"nodes":[
				0,
				1,
				2,
				3,
				4,
				5
			]
		}
	],
	"nodes":[
		{
			"mesh":0,
			"name":"SM_Armour_002",
			"scale":[
				1.0395771265029907,
				1.1040037870407104,
				1.105777382850647
			]
		},
		{
			"mesh":1,
			"name":"SM_Pants_002",
			"rotation":[
				0.7071068286895752,
				0,
				0,
				0.7071068286895752
			]
		},
		{
			"mesh":2,
			"name":"SM_Boots_002"
		},
		{
			"mesh":3,
			"name":"SM_Gloves_002"
		},
		{
			"mesh":4,
			"name":"SM_Helmet_002",
			"rotation":[
				-0.08770745992660522,
				0,
				0,
				0.9961463809013367
			]
		},
		{
			"mesh":5,
			"name":"SM_Sword_002"
		}
	],
	"materials":[
		{
			"doubleSided":true,
			"name":"T_Equipment_002",
			"pbrMetallicRoughness":{
				"baseColorFactor":[
					0.09251183271408081,
					0.2461826056241989,
					0.14481963217258453,
					1
				],
				"metallicFactor":0,
				"roughnessFactor":0.5
			}
		},
		{
			"doubleSided":true,
			"name":"skin",
			"pbrMetallicRoughness":{
				"baseColorFactor":[
					0.8011159300804138,
					0.5995051860809326,
					0.44044947624206543,
					1
				],
				"metallicFactor":0
			}
		}
	],
	"meshes":[
		{
			"name":"Plane.009",
			"primitives":[
				{
					"attributes":{
						"POSITION":0,
						"NORMAL":1,
						"TEXCOORD_0":2
					},
					"indices":3,
					"material":0
				}
			]
		},
		{
			"name":"Plane.012",
			"primitives":[
				{
					"attributes":{
						"POSITION":4,
						"NORMAL":5,
						"TEXCOORD_0":6
					},
					"indices":7,
					"material":0
				}
			]
		},
		{
			"name":"Plane.013",
			"primitives":[
				{
					"attributes":{
						"POSITION":8,
						"NORMAL":9,
						"TEXCOORD_0":10
					},
					"indices":11,
					"material":0
				}
			]
		},
		{
			"name":"mesh.003",
			"primitives":[
				{
					"attributes":{
						"POSITION":12,
						"NORMAL":13,
						"TEXCOORD_0":14
					},
					"indices":15,
					"material":1
				},
				{
					"attributes":{
						"POSITION":16,
						"NORMAL":17,
						"TEXCOORD_0":18
					},
					"indices":19,
					"material":0
				}
			]
		},
		{
			"name":"Cube.002",
			"primitives":[
				{
					"attributes":{
						"POSITION":20,
						"NORMAL":21,
						"TEXCOORD_0":22
					},
					"indices":23,
					"material":0
				}
			]
		},
		{
			"name":"Cube.006",
			"primitives":[
				{
					"attributes":{
						"POSITION":24,
						"NORMAL":25,
						"TEXCOORD_0":26
					},
					"indices":27,
					"material":0
				}
			]
		}
	],
	"accessors":[
		{
			"bufferView":0,
			"componentType":5126,
			"count":530,
			"max":[
				0.23056019842624664,
				0.8618714809417725,
				0.14703159034252167
			],
			"min":[
				-0.23056018352508545,
				0.39010798931121826,
				-0.10726037621498108
			],
			"type":"VEC3"
		},
		{
			"bufferView":1,
			"componentType":5126,
			"count":530,
			"type":"VEC3"
		},
		{
			"bufferView":2,
			"componentType":5126,
			"count":530,
			"type":"VEC2"
		},
		{
			"bufferView":3,
			"componentType":5123,
			"count":2772,
			"type":"SCALAR"
		},
		{
			"bufferView":4,
			"componentType":5126,
			"count":548,
			"max":[
				0.2428426593542099,
				0.13020150363445282,
				-0.0932600200176239
			],
			"min":[
				-0.2428426593542099,
				-0.11467546224594116,
				-0.6450172662734985
			],
			"type":"VEC3"
		},
		{
			"bufferView":5,
			"componentType":5126,
			"count":548,
			"type":"VEC3"
		},
		{
			"bufferView":6,
			"componentType":5126,
			"count":548,
			"type":"VEC2"
		},
		{
			"bufferView":7,
			"componentType":5123,
			"count":2784,
			"type":"SCALAR"
		},
		{
			"bufferView":8,
			"componentType":5126,
			"count":814,
			"max":[
				0.2552720010280609,
				0.3775290846824646,
				0.23041781783103943
			],
			"min":[
				-0.2552720010280609,
				0.0031531762797385454,
				-0.07848042994737625
			],
			"type":"VEC3"
		},
		{
			"bufferView":9,
			"componentType":5126,
			"count":814,
			"type":"VEC3"
		},
		{
			"bufferView":10,
			"componentType":5126,
			"count":814,
			"type":"VEC2"
		},
		{
			"bufferView":11,
			"componentType":5123,
			"count":4404,
			"type":"SCALAR"
		},
		{
			"bufferView":12,
			"componentType":5126,
			"count":632,
			"max":[
				0.5812252163887024,
				0.7264874577522278,
				0.05015096440911293
			],
			"min":[
				-0.5812252163887024,
				0.6029313802719116,
				-0.0474536269903183
			],
			"type":"VEC3"
		},
		{
			"bufferView":13,
			"componentType":5126,
			"count":632,
			"type":"VEC3"
		},
		{
			"bufferView":14,
			"componentType":5126,
			"count":632,
			"type":"VEC2"
		},
		{
			"bufferView":15,
			"componentType":5123,
			"count":3348,
			"type":"SCALAR"
		},
		{
			"bufferView":16,
			"componentType":5126,
			"count":356,
			"max":[
				0.4979884624481201,
				0.828069806098938,
				0.04699721932411194
			],
			"min":[
				-0.4979884624481201,
				0.6680386066436768,
				-0.04698750376701355
			],
			"type":"VEC3"
		},
		{
			"bufferView":17,
			"componentType":5126,
			"count":356,
			"type":"VEC3"
		},
		{
			"bufferView":18,
			"componentType":5126,
			"count":356,
			"type":"VEC2"
		},
		{
			"bufferView":19,
			"componentType":5123,
			"count":1776,
			"type":"SCALAR"
		},
		{
			"bufferView":20,
			"componentType":5126,
			"count":298,
			"max":[
				0.31284844875335693,
				1.6893196105957031,
				0.4980255365371704
			],
			"min":[
				-0.3128485083580017,
				1.2206634283065796,
				-0.03974001109600067
			],
			"type":"VEC3"
		},
		{
			"bufferView":21,
			"componentType":5126,
			"count":298,
			"type":"VEC3"
		},
		{
			"bufferView":22,
			"componentType":5126,
			"count":298,
			"type":"VEC2"
		},
		{
			"bufferView":23,
			"componentType":5123,
			"count":1392,
			"type":"SCALAR"
		},
		{
			"bufferView":24,
			"componentType":5126,
			"count":296,
			"max":[
				0.1299714297056198,
				0.037425894290208817,
				1.0738909244537354
			],
			"min":[
				-0.13031171262264252,
				-0.03742655739188194,
				-0.2521262466907501
			],
			"type":"VEC3"
		},
		{
			"bufferView":25,
			"componentType":5126,
			"count":296,
			"type":"VEC3"
		},
		{
			"bufferView":26,
			"componentType":5126,
			"count":296,
			"type":"VEC2"
		},
		{
			"bufferView":27,
			"componentType":5123,
			"count":1452,
			"type":"SCALAR"
		}
	],
	"bufferViews":[
		{
			"buffer":0,
			"byteLength":6360,
			"byteOffset":0,
			"target":34962
		},
		{
			"buffer":0,
			"byteLength":6360,
			"byteOffset":6360,
			"target":34962
		},
		{
			"buffer":0,
			"byteLength":4240,
			"byteOffset":12720,
			"target":34962
		},
		{
			"buffer":0,
			"byteLength":5544,
			"byteOffset":16960,
			"target":34963
		},
		{
			"buffer":0,
			"byteLength":6576,
			"byteOffset":22504,
			"target":34962
		},
		{
			"buffer":0,
			"byteLength":6576,
			"byteOffset":29080,
			"target":34962
		},
		{
			"buffer":0,
			"byteLength":4384,
			"byteOffset":35656,
			"target":34962
		},
		{
			"buffer":0,
			"byteLength":5568,
			"byteOffset":40040,
			"target":34963
		},
		{
			"buffer":0,
			"byteLength":9768,
			"byteOffset":45608,
			"target":34962
		},
		{
			"buffer":0,
			"byteLength":9768,
			"byteOffset":55376,
			"target":34962
		},
		{
			"buffer":0,
			"byteLength":6512,
			"byteOffset":65144,
			"target":34962
		},
		{
			"buffer":0,
			"byteLength":8808,
			"byteOffset":71656,
			"target":34963
		},
		{
			"buffer":0,
			"byteLength":7584,
			"byteOffset":80464,
			"target":34962
		},
		{
			"buffer":0,
			"byteLength":7584,
			"byteOffset":88048,
			"target":34962
		},
		{
			"buffer":0,
			"byteLength":5056,
			"byteOffset":95632,
			"target":34962
		},
		{
			"buffer":0,
			"byteLength":6696,
			"byteOffset":100688,
			"target":34963
		},
		{
			"buffer":0,
			"byteLength":4272,
			"byteOffset":107384,
			"target":34962
		},
		{
			"buffer":0,
			"byteLength":4272,
			"byteOffset":111656,
			"target":34962
		},
		{
			"buffer":0,
			"byteLength":2848,
			"byteOffset":115928,
			"target":34962
		},
		{
			"buffer":0,
			"byteLength":3552,
			"byteOffset":118776,
			"target":34963
		},
		{
			"buffer":0,
			"byteLength":3576,
			"byteOffset":122328,
			"target":34962
		},
		{
			"buffer":0,
			"byteLength":3576,
			"byteOffset":125904,
			"target":34962
		},
		{
			"buffer":0,
			"byteLength":2384,
			"byteOffset":129480,
			"target":34962
		},
		{
			"buffer":0,
			"byteLength":2784,
			"byteOffset":131864,
			"target":34963
		},
		{
			"buffer":0,
			"byteLength":3552,
			"byteOffset":134648,
			"target":34962
		},
		{
			"buffer":0,
			"byteLength":3552,
			"byteOffset":138200,
			"target":34962
		},
		{
			"buffer":0,
			"byteLength":2368,
			"byteOffset":141752,
			"target":34962
		},
		{
			"buffer":0,
			"byteLength":2904,
			"byteOffset":144120,
			"target":34963
		}
	],
	"buffers":[
		{
			"byteLength":147024,
			"uri":"SM_Equipment_002.bin"
		}
	]
}
